<svg version="1.1" xmlns="http://www.w3.org/2000/svg" xmlns:xlink="http://www.w3.org/1999/xlink" width="70" height="70" viewBox="0,0,70,70"><!-- Generated with https://ivantodorovich.github.io/odoo-icon --><defs><linearGradient x1="70" y1="0" x2="0" y2="70" gradientUnits="userSpaceOnUse" id="color-1"><stop offset="0" stop-color="#69ed56"/><stop offset="1" stop-color="#36ba23"/></linearGradient></defs><g fill="none" fill-rule="nonzero" stroke="none" stroke-width="1" stroke-linecap="butt" stroke-linejoin="miter" stroke-miterlimit="10" stroke-dasharray="" stroke-dashoffset="0" font-family="none" font-weight="none" font-size="none" text-anchor="none" style="mix-blend-mode: normal"><path d="M3.5,70c-1.933,0 -3.5,-1.567 -3.5,-3.5v-63c0,-1.933 1.567,-3.5 3.5,-3.5h63c1.933,0 3.5,1.567 3.5,3.5v63c0,1.933 -1.567,3.5 -3.5,3.5z" id="box" fill="url(#color-1)"/><path d="M65,1h-61c-1.95033,0 -3.2667,0.63396 -3.9491,1.90189c0.28378,-1.64806 1.72001,-2.90189 3.4491,-2.90189h63c1.72965,0 3.16627,1.25466 3.44938,2.90352c-0.69803,-1.26902 -2.34782,-1.90352 -4.94938,-1.90352z" id="topBoxShadow" fill="#ffffff" opacity="0.383"/><path d="M4,69h61c2.66667,0 4.33333,-1 5,-3v0.5c0,1.933 -1.567,3.5 -3.5,3.5h-63c-1.933,0 -3.5,-1.567 -3.5,-3.5c0,-0.1611 0,-0.32777 0,-0.5c0.66667,2 2,3 4,3z" id="bottomBoxShadow" fill="#000000" opacity="0.383"/><path d="M10.82716,17.24372h40.90628c0.06177,0 0.11151,0 0.11151,0.00208v0.1466h0.21926c0.00201,0 0.00201,0.04202 0.00201,0.09422v34.56493c0,0.0522 0,0.09422 -0.00201,0.09422h-0.21926v0.15242c0,0.00125 -0.04974,0.00216 -0.11151,0.00216h-0.75713v3.36645h1.94394v-15.94257c0,-0.02426 0.00145,-0.04378 0.00334,-0.04378h4.1294c0.00189,0 0.00334,0.01953 0.00334,0.04378v15.94257h1.35375v-21.47496c0,-0.03349 0.00111,-0.06045 0.00111,-0.06045h1.08769c0.00111,0 0.00111,0.02697 0.00111,0.06045v22.17873c0,0.03349 -0.00111,0.06045 -0.00111,0.06045h-0.01501v0.32435c0,0.00045 -0.02696,0.00089 -0.06045,0.00089h-22.17873c-0.0335,0 -0.06045,-0.00045 -0.06045,-0.00089v-1.08768c0,-0.00045 0.02696,-0.00089 0.06045,-0.00089h3.72708v-3.36645h-30.14461c-0.06177,0 -0.11151,-0.00104 -0.11151,-0.00216v-0.15242h-0.21364c-0.00201,0 -0.00201,-0.04202 -0.00201,-0.09422v-34.56493c0,-0.0522 0,-0.09422 0.00201,-0.09422h0.21364v-0.1466c0,-0.00208 0.04974,-0.00208 0.11151,-0.00208zM46.84022,52.30036h-1.73236v3.36645h1.73236zM13.07494,19.92004v8.11361h10.20538v-8.11361zM49.48263,28.03365v-8.11361h-10.20256v8.11361zM26.30594,19.92004v8.11361h9.94851v-8.11361zM13.07494,30.71005v8.11975h10.20538v-8.11975zM49.48263,38.8298v-8.11975h-10.20256v8.11975zM26.30594,30.71005v8.11975h9.94851v-8.11975zM13.07494,41.50629v8.11759h10.20538v-8.11759zM49.48263,41.50629h-10.20256v8.11759h1.6917v-1.58915c0,-0.01174 0.00145,-0.02119 0.00334,-0.02119h4.1294c0.00189,0 0.00334,0.00945 0.00334,0.02119v1.58915h1.73236v-5.30621c0,-0.01734 0.00145,-0.0313 0.00334,-0.0313h2.63908zM26.30594,41.50629v8.11759h9.94851v-8.11759z" id="shadow" fill="#000000" opacity="0.3"/><path d="M51.73344,15.24372c0.06177,0 0.11151,0 0.11151,0.00208v0.1466h0.21926c0.00201,0 0.00201,0.04202 0.00201,0.09422l0,22.98976l6.34498,-6.34498h1.08769c0.00111,0 0.00111,0.02697 0.00111,0.06045v22.17873c0,0.03349 -0.00111,0.06045 -0.00111,0.06045l-0.01501,0.01501v0.30933c0,0 0,0.00001 -0.00001,0.00001c0,0 0,0 0,0l-15.2446,15.2446h-40.73927c-1.933,0 -3.5,-1.567 -3.5,-3.5l0,-40.60566l10.50187,-10.50187c0,0 0,0 0,0c0.00004,-0.00004 0.00009,-0.00007 0.00014,-0.00007l0.06698,0l0.14673,-0.14673c0.00195,-0.00195 0.05093,-0.00195 0.11145,-0.00195z" id="flatShadow" fill="#000000" opacity="0.324"/><path d="M10.82716,15.24372h40.90628c0.06177,0 0.11151,0 0.11151,0.00208v0.1466h0.21926c0.00201,0 0.00201,0.04202 0.00201,0.09422v34.56493c0,0.0522 0,0.09422 -0.00201,0.09422h-0.21926v0.15242c0,0.00125 -0.04974,0.00216 -0.11151,0.00216h-0.75713v3.36645h1.94394v-15.94257c0,-0.02426 0.00145,-0.04378 0.00334,-0.04378h4.1294c0.00189,0 0.00334,0.01953 0.00334,0.04378v15.94257h1.35375v-21.47496c0,-0.03349 0.00111,-0.06045 0.00111,-0.06045h1.08769c0.00111,0 0.00111,0.02697 0.00111,0.06045v22.17873c0,0.03349 -0.00111,0.06045 -0.00111,0.06045h-0.01501v0.32435c0,0.00045 -0.02696,0.00089 -0.06045,0.00089h-22.17873c-0.0335,0 -0.06045,-0.00045 -0.06045,-0.00089v-1.08768c0,-0.00045 0.02696,-0.00089 0.06045,-0.00089h3.72708v-3.36645h-30.14461c-0.06177,0 -0.11151,-0.00104 -0.11151,-0.00216v-0.15242h-0.21364c-0.00201,0 -0.00201,-0.04202 -0.00201,-0.09422v-34.56493c0,-0.0522 0,-0.09422 0.00201,-0.09422h0.21364v-0.1466c0,-0.00208 0.04974,-0.00208 0.11151,-0.00208zM46.84022,50.30036h-1.73236v3.36645h1.73236zM13.07494,17.92004v8.11361h10.20538v-8.11361zM49.48263,26.03365v-8.11361h-10.20256v8.11361zM26.30594,17.92004v8.11361h9.94851v-8.11361zM13.07494,28.71005v8.11975h10.20538v-8.11975zM49.48263,36.8298v-8.11975h-10.20256v8.11975zM26.30594,28.71005v8.11975h9.94851v-8.11975zM13.07494,39.50629v8.11759h10.20538v-8.11759zM49.48263,39.50629h-10.20256v8.11759h1.6917v-1.58915c0,-0.01174 0.00145,-0.02119 0.00334,-0.02119h4.1294c0.00189,0 0.00334,0.00945 0.00334,0.02119v1.58915h1.73236v-5.30621c0,-0.01734 0.00145,-0.0313 0.00334,-0.0313h2.63908zM26.30594,39.50629v8.11759h9.94851v-8.11759z" id="icon" fill="#ffffff"/></g></svg>